inDegrees=yes
name=IK-live
DataType=double
version=3
OpenSimVersion=4.1
endheader
time	pelvis_tilt	pelvis_list	pelvis_rotation	pelvis_tx	pelvis_ty	pelvis_tz	hip_flexion_r	hip_adduction_r	hip_rotation_r	knee_angle_r	ankle_angle_r	subtalar_angle_r	mtp_angle_r	hip_flexion_l	hip_adduction_l	hip_rotation_l	knee_angle_l	ankle_angle_l	subtalar_angle_l	mtp_angle_l	lumbar_extension	lumbar_bending	lumbar_rotation	neck_flex	neck_latbend	neck_rot	arm_flex_r	arm_add_r	arm_rot_r	elbow_flex_r	pro_sup_r	wrist_flex_r	wrist_dev_r	arm_flex_l	arm_add_l	arm_rot_l	elbow_flex_l	pro_sup_l	wrist_flex_l	wrist_dev_l
41.1484609	516.0989987273995	-2935.563377934789	-1045.270835349848	0.2341366603171506	0.04326292228651554	-1.326684523481465	-22.57117169827992	-1.591976316804377	-3.241458145969817	5.899560354604904	2.451982624139334	1.987972377786656	0	-24.74788768789517	-3.395140484746916	-11.58000132048591	9.793848132074926	-0.4439473045988533	4.250290820099795	0	-21.37711699760957	1.659277491615732	3.206407148933037	0	0	0	3.161481652984779	-15.1661680692474	30.33619109466065	24.81035229589661	31.20076625661207	0	2.614104919079815	8.043128346545586	-13.33346650296859	39.55767936132814	24.77031602697739	36.80968590474948	0	2.614104919079815
41.3159507	453.6411628596858	-2939.991608019606	-1025.476272158048	0.2341366603171506	0.04326292228651554	-1.326684523481465	-22.57117169827992	-1.591976316804377	-3.241458145969817	5.899560354604904	2.451982624139334	1.987972377786656	0	-24.74788768789517	-3.395140484746916	-11.58000132048591	9.793848132074926	-0.4439473045988533	4.250290820099795	0	-21.37711699760957	1.659277491615732	3.206407148933037	0	0	0	3.172343222641763	-15.16612127604401	30.32309681592502	24.86012211016736	31.22393520383639	0	2.622289023915043	8.053052113002886	-13.33393591789003	39.53893402896476	24.82018929628897	36.82258123080483	0	2.622289023915043
41.4828173	396.4392141982167	-2940.846048144002	-1045.885647472794	0.2341366603171506	0.04326292228651554	-1.326684523481465	-22.57117169827992	-1.591976316804377	-3.241458145969817	5.899560354604904	2.451982624139334	1.987972377786656	0	-24.74788768789517	-3.395140484746916	-11.58000132048591	9.793848132074926	-0.4439473045988533	4.250290820099795	0	-21.37711699760957	1.659277491615732	3.206407148933037	0	0	0	3.184674446421423	-15.16606815679128	30.30823667033346	24.91647776332593	31.2501865660587	0	2.631547525327037	8.064318871530162	-13.33446879364954	39.51766446294567	24.87666160715854	36.83719762186915	0	2.631547525327037
41.6496999	378.5149741069225	-2937.819038737577	-1026.404553407545	0.2341366603171506	0.04326292228651554	-1.326684523481465	-22.57117169827992	-1.591976316804377	-3.241458145969817	5.899560354604904	2.451982624139334	1.987972377786656	0	-24.74788768789517	-3.395140484746916	-11.58000132048591	9.793848132074926	-0.4439473045988533	4.250290820099795	0	-21.37711699760957	1.659277491615732	3.206407148933037	0	0	0	3.192801900182113	-15.16603316015928	30.29845222338115	24.953477429153	31.26742884688813	0	2.637616479444628	8.071745115566767	-13.33481986876019	39.50366369285962	24.91373751581831	36.84680198150833	0	2.637616479444628
41.8166531	302.5096251225366	-2942.053751746009	-1018.94702807817	0.2341366603171506	0.04326292228651554	-1.326684523481465	-22.57117169827992	-1.591976316804377	-3.241458145969817	5.899560354604904	2.451982624139334	1.987972377786656	0	-24.74788768789517	-3.395140484746916	-11.58000132048591	9.793848132074926	-0.4439473045988533	4.250290820099795	0	-21.37711699760957	1.659277491615732	3.206407148933037	0	0	0	3.206365063125591	-15.16597472518852	30.28210749013413	25.01528608906886	31.29625136511485	0	2.647759999244987	8.084137436757221	-13.33540607008171	39.48027327606776	24.97567334440985	36.86285853133438	0	2.647759999244987
41.9830453	227.3575505686925	-2948.819885693775	-1072.283590940124	0.2341366603171506	0.04326292228651554	-1.326684523481465	-22.57117169827992	-1.591976316804377	-3.241458145969817	5.899560354604904	2.451982624139334	1.987972377786656	0	-24.74788768789517	-3.395140484746916	-11.58000132048591	9.793848132074926	-0.4439473045988533	4.250290820099795	0	-21.37711699760957	1.659277491615732	3.206407148933037	0	0	0	3.227811310582594	-15.16588234182233	30.25627969601151	25.11259253893619	31.34167288657707	0	2.663702540861758	8.103732966492228	-13.33633283070324	39.44332275966556	25.07317861191695	36.88817794598814	0	2.663702540861758
42.1479183	214.8747813141317	-2892.691232336311	-1101.038486077332	0.2341366603171506	0.04326292228651554	-1.326684523481465	-22.57117169827992	-1.591976316804377	-3.241458145969817	5.899560354604904	2.451982624139334	1.987972377786656	0	-24.74788768789517	-3.395140484746916	-11.58000132048591	9.793848132074926	-0.4439473045988533	4.250290820099795	0	-21.37711699760957	1.659277491615732	3.206407148933037	0	0	0	3.237299860626206	-15.16584158945707	30.24492876058379	25.15479028625715	31.3613692733907	0	2.670549755982142	8.112405510288372	-13.3367416442506	39.42710770480618	25.11546108673516	36.89917640494511	0	2.670549755982142
42.2998376	214.3015553745433	-2838.990441340645	-1114.39061822354	0.2341366603171506	0.04326292228651554	-1.326684523481465	-22.57117169827992	-1.591976316804377	-3.241458145969817	5.899560354604904	2.451982624139334	1.987972377786656	0	-24.74788768789517	-3.395140484746916	-11.58000132048591	9.793848132074926	-0.4439473045988533	4.250290820099795	0	-21.37711699760957	1.659277491615732	3.206407148933037	0	0	0	3.239182588490447	-15.16583353462932	30.24269260760417	25.16307417885812	31.36523786340324	0	2.671897759386626	8.114127173477295	-13.33682244720858	39.42391631124124	25.12376161671902	36.90133652684377	0	2.671897759386626
42.466771	264.4085814135087	-2809.174272891692	-1167.672561670368	0.2341366603171506	0.04326292228651554	-1.326684523481465	-22.57117169827992	-1.591976316804377	-3.241458145969817	5.899560354604904	2.451982624139334	1.987972377786656	0	-24.74788768789517	-3.395140484746916	-11.58000132048591	9.793848132074926	-0.4439473045988533	4.250290820099795	0	-21.37711699760957	1.659277491615732	3.206407148933037	0	0	0	3.255320051962838	-15.16576403246182	30.22327139151501	25.23596743336743	31.39931261315994	0	2.683830026529703	8.128872742926021	-13.33751967058275	39.39613974070808	25.19680270624004	36.92034316311835	0	2.683830026529703
42.6306222	193.281515252643	-2731.026284197787	-1107.155496541629	0.2341366603171506	0.04326292228651554	-1.326684523481465	-22.57117169827992	-1.591976316804377	-3.241458145969817	5.899560354604904	2.451982624139334	1.987972377786656	0	-24.74788768789517	-3.395140484746916	-11.58000132048591	9.793848132074926	-0.4439473045988533	4.250290820099795	0	-21.37711699760957	1.659277491615732	3.206407148933037	0	0	0	3.292295295032384	-15.1656049808059	30.17891661319877	25.40081292508162	31.47638236568052	0	2.710595047014086	8.162662967839264	-13.33911522319097	39.33276177394031	25.36197763440206	36.96339430774496	0	2.710595047014086
42.7821734	186.6340103960973	-2670.337839993279	-1124.800214314124	0.2341366603171506	0.04326292228651554	-1.326684523481465	-22.57117169827992	-1.591976316804377	-3.241458145969817	5.899560354604904	2.451982624139334	1.987972377786656	0	-24.74788768789517	-3.395140484746916	-11.58000132048591	9.793848132074926	-0.4439473045988533	4.250290820099795	0	-21.37711699760957	1.659277491615732	3.206407148933037	0	0	0	3.293486108085084	-15.16559991176669	30.17751776601412	25.40589039674148	31.47875802189199	0	2.711412771582896	8.163752575109642	-13.33916607359017	39.33077007662401	25.36706501993918	36.96472430694531	0	2.711412771582896
42.9489781	204.6683421091892	-2591.271483722055	-1069.086208160159	0.2341366603171506	0.04326292228651554	-1.326684523481465	-22.57117169827992	-1.591976316804377	-3.241458145969817	5.899560354604904	2.451982624139334	1.987972377786656	0	-24.74788768789517	-3.395140484746916	-11.58000132048591	9.793848132074926	-0.4439473045988533	4.250290820099795	0	-21.37711699760957	1.659277491615732	3.206407148933037	0	0	0	3.312937064668536	-15.16551619672958	30.15416692971997	25.49246699925014	31.51931855668317	0	2.725479600212933	8.181527669168045	-13.34000587473703	39.29740693751251	25.4538134477168	36.98739400836826	0	2.725479600212933
43.1159356	145.1929815491857	-2563.019810414088	-1072.88508445199	0.2341366603171506	0.04326292228651554	-1.326684523481465	-22.57117169827992	-1.591976316804377	-3.241458145969817	5.899560354604904	2.451982624139334	1.987972377786656	0	-24.74788768789517	-3.395140484746916	-11.58000132048591	9.793848132074926	-0.4439473045988533	4.250290820099795	0	-21.37711699760957	1.659277491615732	3.206407148933037	0	0	0	3.322660248232431	-15.1654743858962	30.14251921447611	25.53541450781968	31.53944850078386	0	2.732432133223342	8.190414055643032	-13.34042530654424	39.28077421499874	25.496845477323	36.99865383355836	0	2.732432133223342
43.2828147	177.2221000956408	-2517.658975784523	-1126.787159821807	0.2341366603171506	0.04326292228651554	-1.326684523481465	-22.57117169827992	-1.591976316804377	-3.241458145969817	5.899560354604904	2.451982624139334	1.987972377786656	0	-24.74788768789517	-3.395140484746916	-11.58000132048591	9.793848132074926	-0.4439473045988533	4.250290820099795	0	-21.37711699760957	1.659277491615732	3.206407148933037	0	0	0	3.332080319252606	-15.16543392461321	30.13126459991463	25.57666625384516	31.55878455914276	0	2.73908009335762	8.199024497041817	-13.340831199627	39.26471304252358	25.53817773084469	37.00947837918794	0	2.73908009335762
43.4496947	222.9106485159764	-2540.230572281906	-1110.435689191242	0.2341366603171506	0.04326292228651554	-1.326684523481465	-22.57117169827992	-1.591976316804377	-3.241458145969817	5.899560354604904	2.451982624139334	1.987972377786656	0	-24.74788768789517	-3.395140484746916	-11.58000132048591	9.793848132074926	-0.4439473045988533	4.250290820099795	0	-21.37711699760957	1.659277491615732	3.206407148933037	0	0	0	3.333101317918082	-15.16542959101397	30.13007298864326	25.58093559575267	31.56078452236749	0	2.739762773584503	8.199959052189895	-13.34087467227631	39.26301887928312	25.54245525257826	37.01059999735951	0	2.739762773584503
